<svg id="svg" version="1.1" xmlns="http://www.w3.org/2000/svg" xmlns:xlink="http://www.w3.org/1999/xlink" width="400" height="400" viewBox="0, 0, 400,400"><g id="svgg"><path id="path0" d="M0.000 200.000 L 0.000 400.000 200.000 400.000 L 400.000 400.000 400.000 200.000 L 400.000 0.000 200.000 0.000 L 0.000 0.000 0.000 200.000 M378.548 3.822 C 388.295 7.160,395.248 14.612,397.752 24.404 C 398.779 28.422,398.968 372.016,397.945 376.877 C 395.738 387.369,388.030 395.428,377.136 398.634 L 374.440 399.427 202.052 399.540 C 89.949 399.614,28.686 399.525,26.866 399.285 C 15.092 397.733,6.171 390.051,2.540 378.338 L 1.679 375.560 1.583 202.313 C 1.488 29.797,1.491 29.051,2.241 25.447 C 4.605 14.088,14.038 4.897,25.285 2.996 C 26.257 2.832,105.466 2.720,201.306 2.748 L 375.560 2.799 378.548 3.822 M67.259 104.539 C 54.828 107.323,53.182 125.680,64.848 131.425 L 67.334 132.649 96.447 132.836 C 129.028 133.045,126.773 132.842,128.159 135.691 C 129.341 138.119,130.626 135.569,113.051 165.672 C 110.115 170.700,106.593 176.744,105.223 179.104 C 99.785 188.478,83.744 216.066,81.793 219.403 C 79.714 222.959,77.424 226.878,71.548 236.940 C 69.810 239.916,66.248 246.045,63.632 250.560 C 61.015 255.075,57.738 260.700,56.349 263.060 C 51.998 270.449,51.344 272.303,51.344 277.239 C 51.344 286.586,57.747 294.855,66.978 297.428 C 70.214 298.330,169.275 298.188,171.884 297.277 C 185.259 292.610,184.888 273.952,171.338 269.767 C 169.031 269.055,167.752 269.030,133.132 269.030 L 97.313 269.030 96.067 267.783 C 93.408 265.124,93.372 265.238,100.964 252.239 C 106.551 242.672,110.569 235.769,113.994 229.851 C 114.647 228.722,116.015 226.371,117.035 224.627 C 118.054 222.882,121.962 216.166,125.720 209.701 C 129.478 203.237,133.595 196.185,134.868 194.030 C 138.074 188.603,141.135 183.351,154.116 161.007 C 160.315 150.336,166.240 140.177,167.282 138.433 C 168.324 136.688,169.494 134.609,169.882 133.812 C 175.614 122.044,168.711 107.691,155.863 104.662 C 153.104 104.012,70.129 103.897,67.259 104.539 M204.961 104.891 C 201.374 106.129,198.630 108.559,196.828 112.093 L 195.336 115.020 195.336 200.887 L 195.336 286.754 196.207 288.912 C 201.576 302.214,221.260 300.163,223.848 286.032 C 224.407 282.984,224.415 119.877,223.857 116.418 C 222.409 107.440,213.437 101.967,204.961 104.891 M284.888 104.324 C 260.273 107.839,242.476 124.637,238.422 148.182 C 237.376 154.259,237.264 284.798,238.302 287.900 C 242.438 300.251,259.352 301.532,265.042 289.925 L 266.231 287.500 266.434 220.336 C 266.589 168.807,266.744 152.781,267.096 151.493 C 272.169 132.965,294.266 126.813,307.654 140.201 C 316.763 149.309,316.867 165.742,307.868 173.813 C 302.256 178.846,298.766 180.385,291.604 180.985 C 270.769 182.730,270.945 209.971,291.791 209.864 C 335.473 209.642,359.633 156.937,331.464 123.321 C 320.138 109.805,301.045 102.017,284.888 104.324 " stroke="none" fill="#fbfbfb" fill-rule="evenodd"></path><path id="path1" d="M25.285 2.996 C 14.038 4.897,4.605 14.088,2.241 25.447 C 1.491 29.051,1.488 29.797,1.583 202.313 L 1.679 375.560 2.540 378.338 C 6.171 390.051,15.092 397.733,26.866 399.285 C 28.686 399.525,89.949 399.614,202.052 399.540 L 374.440 399.427 377.136 398.634 C 388.030 395.428,395.738 387.369,397.945 376.877 C 398.968 372.016,398.779 28.422,397.752 24.404 C 395.248 14.612,388.295 7.160,378.548 3.822 L 375.560 2.799 201.306 2.748 C 105.466 2.720,26.257 2.832,25.285 2.996 M155.863 104.662 C 168.711 107.691,175.614 122.044,169.882 133.812 C 169.494 134.609,168.324 136.688,167.282 138.433 C 166.240 140.177,160.315 150.336,154.116 161.007 C 141.135 183.351,138.074 188.603,134.868 194.030 C 133.595 196.185,129.478 203.237,125.720 209.701 C 121.962 216.166,118.054 222.882,117.035 224.627 C 116.015 226.371,114.647 228.722,113.994 229.851 C 110.569 235.769,106.551 242.672,100.964 252.239 C 93.372 265.238,93.408 265.124,96.067 267.783 L 97.313 269.030 133.132 269.030 C 167.752 269.030,169.031 269.055,171.338 269.767 C 184.888 273.952,185.259 292.610,171.884 297.277 C 169.275 298.188,70.214 298.330,66.978 297.428 C 57.747 294.855,51.344 286.586,51.344 277.239 C 51.344 272.303,51.998 270.449,56.349 263.060 C 57.738 260.700,61.015 255.075,63.632 250.560 C 66.248 246.045,69.810 239.916,71.548 236.940 C 77.424 226.878,79.714 222.959,81.793 219.403 C 83.744 216.066,99.785 188.478,105.223 179.104 C 106.593 176.744,110.115 170.700,113.051 165.672 C 130.626 135.569,129.341 138.119,128.159 135.691 C 126.773 132.842,129.028 133.045,96.447 132.836 L 67.334 132.649 64.848 131.425 C 53.182 125.680,54.828 107.323,67.259 104.539 C 70.129 103.897,153.104 104.012,155.863 104.662 M215.690 105.463 C 220.129 107.541,223.059 111.470,223.857 116.418 C 224.415 119.877,224.407 282.984,223.848 286.032 C 221.260 300.163,201.576 302.214,196.207 288.912 L 195.336 286.754 195.336 200.887 L 195.336 115.020 196.828 112.093 C 200.419 105.049,208.635 102.162,215.690 105.463 M301.679 105.178 C 331.181 111.631,349.421 141.181,341.900 170.336 C 335.986 193.261,315.090 209.745,291.791 209.864 C 270.945 209.971,270.769 182.730,291.604 180.985 C 298.766 180.385,302.256 178.846,307.868 173.813 C 316.867 165.742,316.763 149.309,307.654 140.201 C 294.266 126.813,272.169 132.965,267.096 151.493 C 266.744 152.781,266.589 168.807,266.434 220.336 L 266.231 287.500 265.042 289.925 C 259.352 301.532,242.438 300.251,238.302 287.900 C 237.264 284.798,237.376 154.259,238.422 148.182 C 242.476 124.637,260.273 107.839,284.888 104.324 C 287.704 103.922,298.430 104.468,301.679 105.178 " stroke="none" fill="#8b8b8b" fill-rule="evenodd"></path></g></svg>